<?xml version="1.0" standalone="no"?>
<!DOCTYPE svg PUBLIC "-//W3C//DTD SVG 1.1//EN" "http://www.w3.org/Graphics/SVG/1.1/DTD/svg11.dtd" >
<svg xmlns="http://www.w3.org/2000/svg">
<metadata></metadata>
<defs>
<font id="alternate_gothic_fs_no_2Rg" horiz-adv-x="380" >
<font-face units-per-em="1000" ascent="823" descent="-177" />
<missing-glyph horiz-adv-x="177" />
<glyph unicode="&#xfb01;" horiz-adv-x="362" d="M7 415v82h56v57q0 45 9.5 67t34.5 37q26 16 71 16q30 0 76 -9v-76q-39 3 -50 3q-30 0 -40.5 -13t-10.5 -50v-32h170v-497h-90v415h-80v-415h-90v415h-56z" />
<glyph unicode="&#xfb02;" horiz-adv-x="362" d="M7 415v82h56v57q0 61 22 86q31 34 86 34q13 0 54 -6q4 -1 23 -1h75v-667h-90v590l-32 2q-28 0 -38 -13t-10 -50v-32h51v-82h-51v-415h-90v415h-56z" />
<glyph unicode="&#xfb03;" horiz-adv-x="616" d="M7 415v82h56v57q0 61 22 86q31 34 86 34q26 0 50 -7v-77q-13 2 -25 2q-24 0 -33.5 -14t-9.5 -49v-32h58v-82h-58v-415h-90v415h-56zM231 415v82h57v57q0 61 22 86q31 34 86 34q25 0 49 -7v-77q-13 2 -24 2q-24 0 -33.5 -14t-9.5 -49v-32h57v-82h-57v-415h-90v415h-57z M487 0v497h90v-497h-90zM487 577v90h90v-90h-90z" />
<glyph unicode="&#xfb04;" horiz-adv-x="616" d="M7 415v82h56v57q0 61 22 86q31 34 86 34q26 0 50 -7v-77q-13 2 -25 2q-24 0 -33.5 -14t-9.5 -49v-32h58v-82h-58v-415h-90v415h-56zM231 415v82h57v57q0 61 22 86q31 34 86 34q25 0 49 -7v-77q-13 2 -24 2q-24 0 -33.5 -14t-9.5 -49v-32h57v-82h-57v-415h-90v415h-57z M487 0v667h90v-667h-90z" />
<glyph horiz-adv-x="1000" />
<glyph horiz-adv-x="1000" />
<glyph unicode="&#xd;" horiz-adv-x="1000" />
<glyph unicode=" "  horiz-adv-x="177" />
<glyph unicode="&#x09;" horiz-adv-x="177" />
<glyph unicode="&#xa0;" horiz-adv-x="177" />
<glyph unicode="!" horiz-adv-x="223" d="M60 667h103l-20 -470h-63zM63 0v103h97v-103h-97z" />
<glyph unicode="&#x22;" horiz-adv-x="357" d="M43 667h105l-17 -267h-72zM208 667h105l-17 -267h-72z" />
<glyph unicode="#" horiz-adv-x="400" d="M33 182l12 68h47l26 159h-51l13 68h49l31 190h58l-31 -190h74l31 190h57l-31 -190h48l-11 -68h-48l-26 -159h53l-11 -68h-53l-30 -182h-57l30 182h-75l-29 -182h-58l30 182h-48zM149 250h75l26 159h-75z" />
<glyph unicode="$" d="M30 84l69 58q31 -65 82 -65q33 0 51 23.5t18 65.5q0 44 -19.5 71.5t-94.5 90.5q-53 44 -76.5 87t-23.5 95q0 130 121 158v68h53v-67q71 -9 113 -67l-67 -61q-29 49 -67 49q-28 0 -45.5 -21t-17.5 -56q0 -37 24 -72q11 -15 22.5 -25.5t61.5 -51.5q57 -47 83 -94t26 -105 q0 -144 -133 -168v-98h-53v98q-37 3 -72.5 27.5t-54.5 59.5z" />
<glyph unicode="%" horiz-adv-x="532" d="M40 428v148q0 49 17 71q22 30 65 30q42 0 64 -30q17 -24 17 -71v-148q0 -47 -17 -71q-22 -30 -65 -30q-42 0 -64 30q-17 22 -17 71zM92 0l288 667h60l-288 -667h-60zM97 428q0 -30 5 -40t19 -10q15 0 20 9.5t5 40.5v148q0 30 -5 40t-19 10q-15 0 -20 -9.5t-5 -40.5v-148z M329 92v147q0 49 17 71q22 30 65 30q42 0 64 -30q17 -22 17 -71v-147q0 -49 -17 -71q-22 -31 -65 -31q-42 0 -64 31q-17 22 -17 71zM386 91q0 -30 5 -40t19 -10q15 0 20 9.5t5 40.5v149q0 30 -5 39.5t-19 9.5q-15 0 -20 -9.5t-5 -39.5v-149z" />
<glyph unicode="&#x26;" horiz-adv-x="444" d="M40 145q0 47 15 83t63 108q-47 115 -47 186q0 68 35.5 110t92.5 42q53 0 84.5 -35.5t31.5 -94.5q0 -50 -20.5 -96t-74.5 -114q33 -69 76 -133q19 40 34 117l81 -19q-18 -95 -57 -171q15 -26 52 -38v-100q-67 11 -107 58q-51 -55 -115 -55q-67 0 -105.5 41t-38.5 111z M130 153q0 -26 16.5 -43t42.5 -17q30 0 53 24q-51 74 -81 134q-31 -58 -31 -98zM153 535q0 -52 29 -119q50 67 50 133q0 62 -37 62q-19 0 -30.5 -20.5t-11.5 -55.5z" />
<glyph unicode="'" horiz-adv-x="195" d="M43 667h108l-17 -267h-75z" />
<glyph unicode="(" horiz-adv-x="293" d="M49 290q0 203 137 414l66 -36q-113 -184 -113 -378q0 -193 113 -378l-66 -36q-137 211 -137 414z" />
<glyph unicode=")" horiz-adv-x="293" d="M42 -88q113 184 113 378q0 193 -113 378l66 36q137 -211 137 -414q0 -201 -137 -414z" />
<glyph unicode="*" horiz-adv-x="313" d="M40 556l23 69l64 -30l-7 72h73l-7 -72l64 30l23 -69l-70 -14l48 -53l-59 -44l-35 62l-36 -62l-59 44l48 52z" />
<glyph unicode="+" d="M43 301v78h107v105h81v-105h107v-78h-107v-105h-81v105h-107z" />
<glyph unicode="," horiz-adv-x="180" d="M42 0v103h97v-103l-52 -116h-45l35 116h-35z" />
<glyph unicode="-" horiz-adv-x="140" d="M0 208v90h140v-90h-140z" />
<glyph unicode="." horiz-adv-x="180" d="M42 0v103h97v-103h-97z" />
<glyph unicode="/" horiz-adv-x="371" d="M13 -67l267 734h71l-267 -734h-71z" />
<glyph unicode="0" d="M43 186v295q0 54 6.5 83.5t24.5 54.5q40 58 117 58q74 0 116 -58q18 -25 24.5 -54.5t6.5 -83.5v-295q0 -54 -6.5 -83.5t-24.5 -54.5q-42 -58 -116 -58q-75 0 -117 58q-18 25 -24.5 54.5t-6.5 83.5zM138 185q0 -59 7 -78q11 -29 45 -29q35 0 46 29q7 18 7 78v297 q0 60 -7 78q-11 29 -45 29q-35 0 -46 -29q-7 -19 -7 -78v-297z" />
<glyph unicode="1" d="M75 524v62q63 15 114 81h64v-667h-95v524h-83z" />
<glyph unicode="2" d="M36 0v91q119 174 162.5 264t43.5 162t-50 72q-58 0 -58 -102q0 -11 1 -19h-93q-1 10 -1 23q0 90 39.5 138t113.5 48q67 0 105.5 -44t38.5 -119q0 -97 -86 -249q-31 -56 -114 -177h190v-88h-292z" />
<glyph unicode="3" d="M41 170v20h94q-1 -9 -1 -20q0 -92 53 -92q29 0 41 25t12 85q0 46 -7 68t-25 34q-20 12 -67 12v89q57 3 74 22t17 81q0 95 -46 95q-16 0 -25.5 -7.5t-13.5 -24.5t-5 -31t-1 -41h-92v16q0 81 38 128.5t102 47.5t98.5 -47.5t34.5 -135.5q0 -60 -13 -93.5t-45 -54.5 q39 -22 54 -57t15 -105q0 -194 -144 -194q-73 0 -110.5 46t-37.5 134z" />
<glyph unicode="4" d="M23 163v89l170 415h96v-416h62v-88h-62v-163h-92v163h-174zM104 251h93v250z" />
<glyph unicode="5" d="M41 188h95q0 -51 6 -72q11 -38 46 -38q29 0 40 25q9 19 9 71v107q0 54 -7 70q-8 22 -37 22q-21 0 -34 -12.5t-23 -41.5l-88 6l11 342h253v-88h-171l-5 -164q37 47 90 47q51 0 78 -37q28 -37 28 -128v-121q0 -95 -36 -139q-39 -47 -109 -47q-96 0 -131 85q-15 39 -15 113z " />
<glyph unicode="6" d="M44 180v303q0 60 8.5 91.5t31.5 56.5q40 46 105 46q67 0 105.5 -45.5t38.5 -125.5q0 -10 -1 -17h-95q1 9 1 22q0 78 -49 78q-27 0 -38.5 -20.5t-11.5 -69.5v-136q38 48 91 48q109 0 109 -139v-92q0 -94 -35 -138q-43 -52 -112 -52q-70 0 -113 52q-35 44 -35 138zM139 166 q0 -47 12.5 -67.5t40.5 -20.5t40 20.5t12 68.5v89q0 38 -10 54t-33 16q-43 0 -62 -49v-111z" />
<glyph unicode="7" d="M42 579v88h282v-67l-124 -600h-96l123 579h-185z" />
<glyph unicode="8" d="M42 193q0 68 15 103.5t53 57.5q-32 28 -45.5 61t-13.5 87q0 90 40 134q39 41 99 41t99 -41q40 -43 40 -134q0 -54 -13.5 -87t-45.5 -61q38 -22 53 -57.5t15 -103.5q0 -203 -148 -203t-148 203zM139 190q0 -63 11 -87.5t40 -24.5q28 0 39.5 24.5t11.5 85.5q0 64 -11 88.5 t-40 24.5t-40 -24.5t-11 -86.5zM141 494q0 -95 49 -95t49 94q0 96 -49 96t-49 -95z" />
<glyph unicode="9" d="M41 395v92q0 94 35 138q43 52 112 52q70 0 113 -52q35 -44 35 -138v-303q0 -60 -8.5 -91.5t-31.5 -56.5q-40 -46 -105 -46q-67 0 -105.5 45.5t-38.5 125.5q0 10 1 17h95q-1 -9 -1 -22q0 -78 49 -78q27 0 38.5 20.5t11.5 69.5v136q-38 -48 -91 -48q-109 0 -109 139z M136 411q0 -38 10 -54t33 -16q43 0 62 49v111q0 47 -12.5 67.5t-40.5 20.5t-40 -20.5t-12 -68.5v-89z" />
<glyph unicode=":" horiz-adv-x="180" d="M42 0v103h97v-103h-97zM42 394v103h97v-103h-97z" />
<glyph unicode=";" horiz-adv-x="180" d="M42 0v103h97v-103l-52 -116h-45l35 116h-35zM42 394v103h97v-103h-97z" />
<glyph unicode="&#x3c;" horiz-adv-x="500" d="M33 294v83l433 211v-97l-329 -156l329 -155v-97z" />
<glyph unicode="=" d="M43 224v78h295v-78h-295zM43 378v78h295v-78h-295z" />
<glyph unicode="&#x3e;" horiz-adv-x="500" d="M34 83v97l329 156l-329 155v97l433 -211v-83z" />
<glyph unicode="?" horiz-adv-x="346" d="M33 553q20 63 54.5 92t90.5 29q58 0 92.5 -33.5t34.5 -90.5q0 -34 -10.5 -61.5t-43.5 -84.5q-28 -47 -38 -84.5t-10 -92.5q0 -15 1 -30h-81v22q0 82 13.5 133t56.5 128q22 40 22 65q0 22 -10 34.5t-27 12.5q-20 0 -34.5 -16t-29.5 -55zM116 0v103h97v-103h-97z" />
<glyph unicode="@" horiz-adv-x="449" d="M47 162v349q0 80 47 123t135 43q85 0 133 -42.5t48 -118.5v-339h-61l-12 28q-31 -38 -71 -38q-77 0 -77 84v188q0 43 22 67t61 24q31 0 58 -26v21q0 37 -27.5 59.5t-72.5 22.5q-44 0 -75 -26q-16 -14 -22 -32t-6 -54v-311q0 -56 19 -82q31 -42 89 -42q54 0 95 35l48 -46 q-53 -59 -143 -59q-86 0 -134 41q-54 46 -54 131zM269 272q0 -21 6.5 -29.5t23.5 -8.5t24 8.5t7 29.5v153q0 21 -6.5 29.5t-23.5 8.5t-24 -8.5t-7 -29.5v-153z" />
<glyph unicode="A" horiz-adv-x="405" d="M27 0l109 667h130l116 -667h-103l-23 147h-107l-23 -147h-99zM163 240h78l-40 266z" />
<glyph unicode="B" horiz-adv-x="401" d="M45 0v667h139q166 0 166 -173q0 -100 -70 -149q43 -22 62.5 -61t19.5 -105q0 -100 -49 -146q-20 -19 -45.5 -26t-74.5 -7h-148zM145 93h37q42 0 61 22.5t19 74.5q0 67 -32 93q-18 15 -60 15h-25v-205zM145 391h21q41 0 59 17q27 26 27 82q0 84 -69 84h-38v-183z" />
<glyph unicode="C" horiz-adv-x="388" d="M42 220v226q0 79 7.5 113.5t32.5 64.5q42 53 117 53q44 0 79 -19.5t54 -54.5q14 -24 18.5 -48.5t4.5 -72.5v-36h-101q0 62 -3 85q-2 24 -16.5 38.5t-36.5 14.5q-40 0 -51 -44q-5 -22 -5 -101v-212q0 -86 7 -106q13 -38 49 -38q20 0 32.5 10t17.5 34t5.5 39t0.5 50v20h101 v-38q0 -51 -4.5 -77.5t-18.5 -52.5q-40 -78 -133 -78q-75 0 -117 53q-25 30 -32.5 64.5t-7.5 112.5z" />
<glyph unicode="D" horiz-adv-x="397" d="M45 0v667h142q86 0 127.5 -46t41.5 -142v-291q0 -96 -41.5 -142t-127.5 -46h-142zM145 93h31q43 0 63 26q17 24 17 88v253q0 64 -17 88q-20 26 -63 26h-31v-481z" />
<glyph unicode="E" horiz-adv-x="348" d="M45 0v667h272v-93h-172v-182h124v-93h-124v-206h172v-93h-272z" />
<glyph unicode="F" horiz-adv-x="330" d="M45 0v667h269v-93h-169v-182h123v-93h-123v-299h-100z" />
<glyph unicode="G" horiz-adv-x="399" d="M42 213v233q0 79 7.5 113.5t32.5 64.5q42 53 117 53q56 0 96 -30.5t53 -82.5q7 -28 7 -115h-101q0 60 -3 81q-2 24 -16.5 38.5t-36.5 14.5q-40 0 -51 -44q-5 -22 -5 -100v-211q0 -83 7 -106q12 -38 50 -38q41 0 51 43q5 23 5 101v27h-61v83h161v-338h-49l-19 53 q-21 -35 -44.5 -49t-60.5 -14q-76 0 -110 58q-30 50 -30 165z" />
<glyph unicode="H" horiz-adv-x="400" d="M45 0v667h100v-273h111v273h100v-667h-100v301h-111v-301h-100z" />
<glyph unicode="I" horiz-adv-x="189" d="M45 0v667h100v-667h-100z" />
<glyph unicode="J" horiz-adv-x="231" d="M10 0v93h24q29 0 40.5 21.5t11.5 79.5v473h100v-457q0 -72 -6 -106.5t-22 -59.5q-29 -44 -100 -44h-48z" />
<glyph unicode="K" horiz-adv-x="399" d="M45 0v667h100v-267l118 267h105l-115 -232l130 -435h-107l-85 310l-46 -92v-218h-100z" />
<glyph unicode="L" horiz-adv-x="324" d="M45 0v667h100v-574h166v-93h-266z" />
<glyph unicode="M" horiz-adv-x="517" d="M45 0v667h134l83 -406l76 406h135v-667h-93v461l-96 -461h-45l-101 461v-461h-93z" />
<glyph unicode="N" horiz-adv-x="420" d="M45 0v667h101l137 -396v396h93v-667h-93l-145 412v-412h-93z" />
<glyph unicode="O" horiz-adv-x="397" d="M42 217v233q0 74 8 109.5t32 64.5q43 53 117 53t116 -53q24 -29 32 -64.5t8 -109.5v-233q0 -75 -8 -110t-32 -64q-43 -53 -117 -53q-73 0 -116 53q-24 29 -32 64.5t-8 109.5zM142 228q0 -87 7 -107q13 -38 50 -38q40 0 51 44q5 22 5 101v211q0 87 -7 107q-13 38 -49 38 q-41 0 -52 -44q-5 -22 -5 -101v-211z" />
<glyph unicode="P" horiz-adv-x="386" d="M45 0v667h140q96 0 134.5 -43.5t38.5 -151.5q0 -109 -38.5 -152.5t-134.5 -43.5h-40v-276h-100zM145 369h32q48 0 64.5 21t16.5 82t-16.5 81.5t-64.5 20.5h-32v-205z" />
<glyph unicode="Q" horiz-adv-x="397" d="M42 217v233q0 74 8 109.5t32 64.5q43 53 117 53t116 -53q24 -29 32 -64.5t8 -109.5v-233q0 -107 -22 -148q14 -17 43 -21v-99q-81 1 -111 55q-34 -14 -66 -14q-74 0 -117 53q-24 29 -32 64.5t-8 109.5zM142 228q0 -87 7 -107q13 -38 50 -38q40 0 51 44q5 22 5 101v211 q0 87 -7 107q-13 38 -49 38q-41 0 -52 -44q-5 -22 -5 -101v-211z" />
<glyph unicode="R" horiz-adv-x="389" d="M45 0v667h140q86 0 126.5 -46.5t40.5 -146.5q0 -65 -15 -103t-52 -65l77 -306h-106l-63 279h-48v-279h-100zM145 372h32q44 0 58 21q17 27 17 80q0 58 -20 83q-13 18 -55 18h-32v-202z" />
<glyph unicode="S" horiz-adv-x="371" d="M23 170l95 17q4 -104 71 -104q28 0 44.5 20t16.5 53q0 37 -26 72q-17 23 -78 79q-64 58 -89.5 104t-25.5 101q0 74 43 119.5t114 45.5q134 0 152 -160l-97 -14q-5 45 -17.5 63t-40.5 18q-26 0 -41.5 -18t-15.5 -48q0 -34 18 -62t71 -77q78 -71 104 -114t26 -104 q0 -76 -44.5 -123.5t-114.5 -47.5q-73 0 -118 49t-47 131z" />
<glyph unicode="T" horiz-adv-x="328" d="M7 574v93h314v-93h-108v-574h-100v574h-106z" />
<glyph unicode="U" horiz-adv-x="403" d="M45 217v450h100v-439q0 -87 7 -107q13 -38 50 -38q40 0 51 44q5 22 5 101v439h100v-450q0 -75 -8 -110t-32 -64q-43 -53 -117 -53q-73 0 -116 53q-24 29 -32 64.5t-8 109.5z" />
<glyph unicode="V" horiz-adv-x="379" d="M17 667h102l77 -427l68 427h99l-114 -667h-104z" />
<glyph unicode="W" horiz-adv-x="550" d="M20 667h100l50 -399l63 399h83l66 -399l51 399h97l-101 -667h-87l-69 404l-66 -404h-87z" />
<glyph unicode="X" horiz-adv-x="394" d="M17 0l126 343l-121 324h105l69 -197l65 197h104l-117 -324l129 -343h-105l-78 215l-74 -215h-103z" />
<glyph unicode="Y" horiz-adv-x="372" d="M13 667h104l71 -262l69 262h101l-120 -397v-270h-100v270z" />
<glyph unicode="Z" horiz-adv-x="352" d="M27 0v93l193 481h-178v93h284v-93l-192 -481h192v-93h-299z" />
<glyph unicode="[" horiz-adv-x="293" d="M70 -95v762h160v-87h-72v-588h72v-87h-160z" />
<glyph unicode="\" horiz-adv-x="371" d="M20 667h71l267 -734h-71z" />
<glyph unicode="]" horiz-adv-x="293" d="M63 -8h72v588h-72v87h160v-762h-160v87z" />
<glyph unicode="^" horiz-adv-x="500" d="M27 368l168 301h110l168 -301h-90l-133 235l-133 -235h-90z" />
<glyph unicode="_" horiz-adv-x="500" d="M0 -67h500v-62h-500v62z" />
<glyph unicode="`" horiz-adv-x="500" d="M149 660h97l45 -80h-70z" />
<glyph unicode="a" horiz-adv-x="346" d="M30 111q0 65 36.5 107t146.5 104v32q0 40 -7.5 54t-29.5 14q-21 0 -31 -15.5t-11 -52.5h-92q5 72 42 111t100 39t94 -43q15 -21 20 -44.5t5 -72.5v-164q0 -124 9 -180h-90q-3 16 -7 56q-54 -63 -104 -63q-37 0 -59 32t-22 86zM123 128q0 -53 31 -53t59 46v132 q-49 -31 -69.5 -59.5t-20.5 -65.5z" />
<glyph unicode="b" horiz-adv-x="338" d="M39 0v667h90v-218q47 55 93 55q45 0 65 -40q16 -32 16 -116v-199q0 -84 -16 -116q-20 -40 -65 -40q-48 0 -93 55v-48h-90zM129 97q22 -22 45 -22q24 0 32 18q7 14 7 55v201q0 42 -7 55q-8 18 -32 18q-23 0 -45 -22v-303z" />
<glyph unicode="c" horiz-adv-x="326" d="M35 161v174q0 81 28 118q38 51 109 51q43 0 75.5 -23t45.5 -62q7 -23 7 -94h-90v12q0 25 -0.5 36t-4.5 25t-13 19t-24 5q-43 0 -43 -69v-209q0 -69 43 -69q15 0 24 6t13 22t4.5 28t0.5 38v12h90v-23q0 -75 -22 -109q-35 -56 -107 -56q-31 0 -60.5 14t-47.5 37 q-28 38 -28 117z" />
<glyph unicode="d" horiz-adv-x="338" d="M35 149v199q0 84 16 116q20 40 65 40q48 0 93 -55v218h90v-667h-90v48q-47 -55 -93 -55q-45 0 -65 40q-16 32 -16 116zM125 148q0 -41 7 -55q8 -18 32 -18q23 0 45 22v303q-22 22 -45 22q-24 0 -32 -18q-7 -13 -7 -55v-201z" />
<glyph unicode="e" horiz-adv-x="340" d="M35 162v173q0 79 28 118q38 51 107 51q68 0 106 -52q28 -38 28 -117v-103h-179v-88q0 -69 45 -69q29 0 38 23q5 11 5 56v18h91v-23q0 -70 -23 -102q-38 -54 -109 -54q-70 0 -108 51q-29 39 -29 118zM125 307h89v46q0 69 -44 69q-45 0 -45 -69v-46z" />
<glyph unicode="f" horiz-adv-x="224" d="M7 415v82h56v57q0 61 22 86q31 34 86 34q26 0 50 -7v-77q-13 2 -25 2q-24 0 -33.5 -14t-9.5 -49v-32h58v-82h-58v-415h-90v415h-56z" />
<glyph unicode="g" horiz-adv-x="339" d="M11 -89q0 26 17 44t64 41q-57 24 -57 64q0 39 57 81q-32 22 -44.5 50t-12.5 78v92q0 64 25 99q33 44 101 44q67 0 103 -56q26 50 69 53v-76q-34 0 -54 -20q2 -16 2 -52v-84q0 -66 -25 -99q-33 -44 -94 -44q-12 0 -25 1q-21 -17 -21 -34q0 -22 55 -25q99 -6 126 -26 q41 -29 41 -88q0 -63 -45.5 -97t-130.5 -34q-71 0 -111 23t-40 65zM106 -59q0 -22 19 -35t50 -13q37 0 60 14t23 37q0 18 -11 26.5t-37 11.5l-66 5q-38 -18 -38 -46zM117 266q0 -63 41 -63t41 63v97q0 64 -41 64t-41 -64v-97z" />
<glyph unicode="h" horiz-adv-x="337" d="M39 0v667h90v-224q31 34 53.5 47.5t49.5 13.5q33 0 50 -23q16 -23 16 -94v-387h-90v366q0 34 -3 41q-3 15 -19 15q-28 0 -57 -42v-380h-90z" />
<glyph unicode="i" horiz-adv-x="167" d="M39 0v497h90v-497h-90zM39 577v90h90v-90h-90z" />
<glyph unicode="j" horiz-adv-x="175" d="M-17 -77q15 -3 21 -3q42 0 42 56v521h90v-510q0 -53 -3.5 -74.5t-14.5 -40.5q-24 -42 -88 -42q-20 0 -47 6v87zM46 577v90h90v-90h-90z" />
<glyph unicode="k" horiz-adv-x="338" d="M39 0v667h90v-361l92 191h91l-90 -166l98 -331h-88l-63 231l-40 -72v-159h-90z" />
<glyph unicode="l" horiz-adv-x="167" d="M39 0v667h90v-667h-90z" />
<glyph unicode="m" horiz-adv-x="506" d="M39 0v497h90v-54q31 34 53.5 47.5t49.5 13.5q56 0 64 -61q31 34 54.5 47.5t51.5 13.5q33 0 50 -23q16 -23 16 -94v-387h-90v366q0 34 -3 41q-3 15 -20 15q-27 0 -57 -42v-380h-90v366q0 34 -3 41q-3 15 -19 15q-28 0 -57 -42v-380h-90z" />
<glyph unicode="n" horiz-adv-x="337" d="M39 0v497h90v-54q31 34 53.5 47.5t49.5 13.5q33 0 50 -23q16 -23 16 -94v-387h-90v366q0 34 -3 41q-3 15 -19 15q-28 0 -57 -42v-380h-90z" />
<glyph unicode="o" horiz-adv-x="336" d="M35 162v173q0 79 28 118q38 51 105 51t105 -51q28 -39 28 -118v-173q0 -79 -28 -118q-38 -51 -105 -51t-105 51q-28 39 -28 118zM125 144q0 -69 43 -69t43 69v209q0 69 -43 69t-43 -69v-209z" />
<glyph unicode="p" horiz-adv-x="338" d="M39 -170v667h90v-48q47 55 93 55q45 0 65 -40q16 -32 16 -116v-199q0 -84 -16 -116q-20 -40 -65 -40q-48 0 -93 55v-218h-90zM129 97q22 -22 45 -22q24 0 32 18q7 13 7 55v201q0 41 -7 55q-8 18 -32 18q-23 0 -45 -22v-303z" />
<glyph unicode="q" horiz-adv-x="338" d="M35 149v199q0 84 16 116q20 40 65 40q48 0 93 -55v48h90v-667h-90v218q-47 -55 -93 -55q-45 0 -65 40q-16 32 -16 116zM125 148q0 -42 7 -55q8 -18 32 -18q23 0 45 22v303q-22 22 -45 22q-24 0 -32 -18q-7 -14 -7 -55v-201z" />
<glyph unicode="r" horiz-adv-x="236" d="M39 0v497h90v-71q23 41 48 59t60 19v-99q-16 5 -31 5q-36 0 -56 -25q-21 -25 -21 -84v-301h-90z" />
<glyph unicode="s" horiz-adv-x="313" d="M15 136l85 20q7 -36 15 -50q17 -31 47 -31q20 0 32 12.5t12 34.5t-12 38t-50 45q-71 54 -95.5 89t-24.5 81q0 58 37.5 93.5t97.5 35.5q114 0 133 -124l-86 -20q-7 35 -18 48.5t-32 13.5q-19 0 -30.5 -12.5t-11.5 -32.5t13.5 -37t52.5 -47q71 -55 93.5 -87.5t22.5 -81.5 q0 -60 -37 -95.5t-99 -35.5q-123 0 -145 143z" />
<glyph unicode="t" horiz-adv-x="244" d="M15 415v82h55v136h90v-136h75v-82h-75v-247q0 -51 9.5 -68t38.5 -17q11 0 27 4v-85q-37 -9 -64 -9q-53 0 -79 37q-13 18 -17.5 38t-4.5 65v282h-55z" />
<glyph unicode="u" horiz-adv-x="337" d="M39 110v387h90v-366q0 -34 3 -41q3 -15 19 -15q28 0 57 42v380h90v-497h-90v54q-31 -34 -53.5 -47.5t-49.5 -13.5q-33 0 -50 23q-16 23 -16 94z" />
<glyph unicode="v" horiz-adv-x="314" d="M13 497h92l55 -308l51 308h89l-96 -497h-85z" />
<glyph unicode="w" horiz-adv-x="469" d="M17 497h85l48 -290l50 290h71l54 -283l46 283h82l-85 -497h-80l-52 284l-49 -284h-79z" />
<glyph unicode="x" horiz-adv-x="323" d="M15 0l97 262l-97 235h95l50 -136l48 136h91l-91 -235l100 -262h-92l-57 157l-54 -157h-90z" />
<glyph unicode="y" horiz-adv-x="320" d="M17 497h90l54 -320l53 320h89l-101 -510q-14 -71 -21 -91.5t-23 -37.5q-31 -35 -103 -35q-13 0 -32 3v88q7 -1 18 -1q37 0 52 18.5t25 62.5z" />
<glyph unicode="z" horiz-adv-x="309" d="M27 0v77l152 338h-139v82h238v-82l-148 -333h148v-82h-251z" />
<glyph unicode="{" horiz-adv-x="313" d="M37 250v76q31 8 44 29t13 61v115q0 72 35 106q21 20 47 25t104 5v-88q-57 -1 -76.5 -19t-19.5 -70v-89q0 -48 -12 -73t-43 -42q31 -18 43 -44t12 -73v-88q0 -55 19 -73t77 -19v-83q-81 0 -107 5.5t-46 26.5q-33 34 -33 115v103q0 43 -13 64t-44 30z" />
<glyph unicode="|" horiz-adv-x="500" d="M201 -167v834h98v-834h-98z" />
<glyph unicode="}" horiz-adv-x="313" d="M34 -11q57 1 76 19t19 73v88q0 47 12 73t43 44q-31 17 -43 42t-12 73v89q0 52 -19.5 70t-75.5 19v88q78 0 103.5 -5t46.5 -25q35 -34 35 -106v-115q0 -40 13.5 -61t44.5 -29v-76q-32 -9 -45 -30t-13 -64v-103q0 -81 -33 -115q-20 -21 -45.5 -26.5t-106.5 -5.5v83z" />
<glyph unicode="~" horiz-adv-x="667" d="M94 613q53 119 139 119q38 0 115 -38q66 -31 89 -31q25 0 45.5 17t41.5 55l50 -41q-51 -118 -148 -118q-20 0 -40 7.5t-77 35.5q-53 25 -80 25q-45 0 -85 -71z" />
<glyph unicode="&#xa1;" horiz-adv-x="223" d="M60 -170l20 470h63l20 -470h-103zM63 394v103h97v-103h-97z" />
<glyph unicode="&#xa2;" d="M57 252v174q0 58 13 90.5t44 53.5q24 17 51 22v108h53v-107q40 -9 65 -32q22 -21 30.5 -48t8.5 -78v-19h-90v16q0 38 -4 53q-7 28 -38 28q-43 0 -43 -69v-209q0 -69 43 -69q31 0 38 30q4 17 4 58v18h90v-23q0 -57 -10.5 -86t-38.5 -51q-24 -18 -55 -25v-120h-53v121 q-57 13 -82.5 51.5t-25.5 112.5z" />
<glyph unicode="&#xa3;" d="M2 52q25 38 48.5 56t54.5 21q18 39 18 77q0 31 -15 86h-85v61h65q-25 70 -32 99t-7 60q0 75 41 120t111 45q71 0 109 -48.5t37 -139.5l-93 -3q-1 52 -13.5 75.5t-40.5 23.5q-24 0 -39 -19.5t-15 -51.5q0 -37 30 -143l5 -18h104v-61h-86q12 -44 12 -82q0 -49 -26 -93 q52 -22 62 -22q35 0 37 82l84 -4q0 -84 -30 -132t-82 -48q-31 0 -95 32q-26 13 -39 13q-28 0 -62 -48z" />
<glyph unicode="&#xa4;" horiz-adv-x="416" d="M43 224l39 39q-18 33 -18 70q0 36 18 69l-38 38l58 57l37 -37q36 18 69 18q35 0 70 -19l40 39l54 -54l-39 -40q18 -33 18 -70q0 -36 -17 -69l37 -37l-57 -58l-37 37q-35 -17 -69 -17q-35 0 -71 18l-39 -39zM131 334q0 -31 22.5 -54t53.5 -23t54 22.5t23 52.5 q0 32 -22.5 55t-55.5 23q-30 0 -52.5 -22.5t-22.5 -53.5z" />
<glyph unicode="&#xa5;" d="M26 667h99l68 -262l65 262h96l-96 -327h72v-61h-90v-279h-95v279h-91v61h72z" />
<glyph unicode="&#xa6;" horiz-adv-x="500" d="M201 153h98v-320h-98v320zM201 328v339h98v-339h-98z" />
<glyph unicode="&#xa7;" horiz-adv-x="389" d="M40 359q0 70 84 104l-10 12q-40 47 -40 94q0 48 34 78t89 30q56 0 90.5 -34.5t34.5 -90.5q0 -9 -1 -30h-90q0 41 -3 50q-9 23 -33 23q-13 0 -22 -8t-9 -20q0 -11 24 -40l127 -154q34 -41 34 -91q0 -79 -75 -110l10 -13q27 -36 27 -80q0 -50 -33.5 -81t-88.5 -31 q-61 0 -95.5 34.5t-34.5 93.5q0 11 2 20h91q-2 -16 -2 -18q0 -22 10.5 -35t28.5 -13q14 0 23 9t9 23q0 13 -18 35l-108 130q-32 38 -43.5 62t-11.5 51zM130 362q0 -14 20 -39l75 -91q34 16 34 49q0 16 -24 46l-65 78q-40 -17 -40 -43z" />
<glyph unicode="&#xa8;" horiz-adv-x="500" d="M137 578v89h87v-89h-87zM277 578v89h87v-89h-87z" />
<glyph unicode="&#xa9;" horiz-adv-x="775" d="M43 333q0 145 101.5 245.5t248.5 100.5q139 0 239.5 -102t100.5 -244q0 -143 -101 -244t-244 -101q-142 0 -243.5 101t-101.5 244zM99 333q0 -121 85 -207t204 -86t204 86t85 207t-84 207.5t-201 86.5q-123 0 -208 -85t-85 -209zM288 265v133q0 47 5 68t19 39 q27 33 73 33q55 0 81 -45q14 -25 14 -73q0 -15 -1 -25h-66q1 5 1 12q0 41 -4 50q-6 19 -26 19t-27 -23q-3 -12 -3 -59v-125q0 -49 4 -61q6 -20 26 -20q18 0 24 15.5t6 62.5q0 7 -1 12h66q1 -11 1 -26q0 -51 -14 -78q-26 -48 -82 -48q-46 0 -72 32q-15 19 -19.5 39.5 t-4.5 67.5z" />
<glyph unicode="&#xaa;" horiz-adv-x="232" d="M23 336q0 39 23 64.5t90 61.5v24q0 30 -19 30q-21 0 -22 -40h-65q6 95 92 95q41 0 62 -26q16 -20 16 -72v-97q0 -76 7 -109h-65l-3 28q-32 -32 -62 -32q-25 0 -39.5 20t-14.5 53zM89 346q0 -28 15 -28q17 0 32 25v70q-47 -30 -47 -67z" />
<glyph unicode="&#xab;" horiz-adv-x="308" d="M40 182v143l90 75v-113l-31 -34l31 -34v-112zM178 182v143l90 82v-120l-31 -34l31 -34v-119z" />
<glyph unicode="&#xac;" horiz-adv-x="500" d="M33 195v86h433v-281h-95v195h-338z" />
<glyph unicode="&#xad;" horiz-adv-x="140" d="M0 208v90h140v-90h-140z" />
<glyph unicode="&#xae;" horiz-adv-x="775" d="M43 333q0 145 101.5 245.5t248.5 100.5q139 0 239.5 -102t100.5 -244q0 -143 -101.5 -244t-243.5 -101t-243.5 101t-101.5 244zM99 333q0 -121 85 -207t204 -86t204 86t85 207t-84 207.5t-201 86.5q-123 0 -208 -85t-85 -209zM296 137v400h86q53 0 77.5 -28.5t24.5 -89.5 q0 -71 -39 -100l46 -182h-70l-37 164h-22v-164h-66zM362 363h16q23 0 31.5 12t8.5 44t-8.5 44t-31.5 12h-16v-112z" />
<glyph unicode="&#xaf;" horiz-adv-x="500" d="M153 586v67h193v-67h-193z" />
<glyph unicode="&#xb0;" horiz-adv-x="407" d="M60 529q0 60 42 102.5t102 42.5t101.5 -42.5t41.5 -103.5q0 -58 -42 -100t-101 -42q-60 0 -102 42t-42 101zM127 530q0 -31 22.5 -54t53.5 -23t54 22.5t23 52.5q0 32 -22.5 55t-55.5 23q-30 0 -52.5 -22.5t-22.5 -53.5z" />
<glyph unicode="&#xb1;" d="M43 59v78h295v-78h-295zM43 296v78h107v105h81v-105h107v-78h-107v-105h-81v105h-107z" />
<glyph unicode="&#xb2;" horiz-adv-x="260" d="M33 266v58q74 101 101.5 154.5t27.5 96.5q0 39 -27 39q-33 0 -33 -57v-14h-65q-1 7 -1 17q0 55 26 84t74 29q43 0 68.5 -27t25.5 -73q0 -45 -26.5 -98.5t-96.5 -149.5h117v-59h-191z" />
<glyph unicode="&#xb3;" horiz-adv-x="260" d="M35 371v15h66q-1 -6 -1 -15q0 -51 30 -51q16 0 23 14t7 47q0 46 -19 58q-5 4 -20 6.5t-22 0.5l-1 -1v59q37 1 47.5 11.5t10.5 45.5q0 53 -26 53t-26 -48q0 -8 1 -13h-65v12q0 50 24.5 79t67.5 29q41 0 64 -29t23 -82q0 -66 -34 -87q41 -23 41 -96q0 -118 -94 -118 q-47 0 -72 28.5t-25 81.5z" />
<glyph unicode="&#xb4;" horiz-adv-x="500" d="M202 580l46 80h96l-72 -80h-70z" />
<glyph unicode="&#xb5;" horiz-adv-x="337" d="M39 -170v667h90v-370q0 -36 8.5 -50.5t28.5 -14.5q30 0 42 40v395h90v-497h-90v40q-7 -27 -17 -37t-27 -10q-24 0 -35 30v-193h-90z" />
<glyph unicode="&#xb6;" horiz-adv-x="418" d="M40 492q0 77 47.5 126t121.5 49h172v-30h-40v-737h-48v737h-55v-737h-49v420q-63 2 -106 52t-43 120z" />
<glyph unicode="&#xb7;" horiz-adv-x="180" d="M42 202v103h97v-103h-97z" />
<glyph unicode="&#xb8;" horiz-adv-x="500" d="M211 -46h79v-68l-22 -56h-47l17 56h-27v68z" />
<glyph unicode="&#xb9;" horiz-adv-x="260" d="M54 576v43q39 8 74 48h45v-400h-67v309h-52z" />
<glyph unicode="&#xba;" horiz-adv-x="226" d="M27 366v102q0 48 18 72q24 31 69 31q44 0 68 -31q18 -24 18 -72v-102q0 -48 -18 -72q-24 -31 -69 -31q-44 0 -68 31q-18 24 -18 72zM91 355q0 -37 22 -37q23 0 23 37v124q0 37 -22 37q-23 0 -23 -37v-124z" />
<glyph unicode="&#xbb;" horiz-adv-x="308" d="M40 100v119l31 34l-31 34v120l90 -82v-143zM178 107v112l31 34l-31 34v113l90 -75v-143z" />
<glyph unicode="&#xbc;" horiz-adv-x="606" d="M54 576v43q39 8 74 48h45v-400h-67v309h-52zM167 -33l222 733h51l-227 -733h-46zM368 96v57l109 247h65v-245h39v-59h-39v-96h-64v96h-110zM422 153h58v143z" />
<glyph unicode="&#xbd;" horiz-adv-x="606" d="M54 576v43q39 8 74 48h45v-400h-67v309h-52zM167 -33l222 733h51l-227 -733h-46zM379 0v58q74 101 101.5 154.5t27.5 95.5q0 39 -27 39q-33 0 -33 -57v-14h-65q-1 7 -1 17q0 55 26 84t74 29q43 0 68.5 -27t25.5 -73q0 -45 -26.5 -98.5t-96.5 -148.5h117v-59h-191z" />
<glyph unicode="&#xbe;" horiz-adv-x="606" d="M35 371v15h66q-1 -6 -1 -15q0 -51 30 -51q16 0 23 14t7 47q0 46 -19 58q-5 4 -20 6.5t-22 0.5l-1 -1v59q37 1 47.5 11.5t10.5 45.5q0 53 -26 53t-26 -48q0 -8 1 -13h-65v12q0 50 24.5 79t67.5 29q41 0 64 -29t23 -82q0 -66 -34 -87q41 -23 41 -96q0 -118 -94 -118 q-47 0 -72 28.5t-25 81.5zM167 -33l222 733h51l-227 -733h-46zM368 96v57l109 247h65v-245h39v-59h-39v-96h-64v96h-110zM422 153h58v143z" />
<glyph unicode="&#xbf;" horiz-adv-x="346" d="M40 -53q0 34 10.5 62t44.5 84q28 47 38 84.5t10 92.5q0 16 -1 30h80q1 -10 1 -22q0 -83 -14 -134t-57 -127q-22 -40 -22 -65q0 -22 10 -34.5t27 -12.5q20 0 35 16t29 55l81 -32q-20 -63 -54.5 -92t-89.5 -29q-59 0 -93.5 33.5t-34.5 90.5zM132 394v103h97v-103h-97z" />
<glyph unicode="&#xc0;" horiz-adv-x="405" d="M27 0l109 667h130l116 -667h-103l-23 147h-107l-23 -147h-99zM95 800h97l45 -80h-70zM163 240h78l-40 266z" />
<glyph unicode="&#xc1;" horiz-adv-x="405" d="M27 0l109 667h130l116 -667h-103l-23 147h-107l-23 -147h-99zM163 240h78l-40 266zM172 720l46 80h96l-72 -80h-70z" />
<glyph unicode="&#xc2;" horiz-adv-x="405" d="M27 0l109 667h130l116 -667h-103l-23 147h-107l-23 -147h-99zM97 720l58 80h101l58 -80h-80l-28 31l-29 -31h-80zM163 240h78l-40 266z" />
<glyph unicode="&#xc3;" horiz-adv-x="405" d="M27 0l109 667h130l116 -667h-103l-23 147h-107l-23 -147h-99zM116 718v69q27 15 55 15q20 0 43 -8q34 -12 48 -12q18 0 47 17v-69q-29 -17 -47 -17q-14 0 -48 12q-23 8 -43 8q-28 0 -55 -15zM163 240h78l-40 266z" />
<glyph unicode="&#xc4;" horiz-adv-x="405" d="M27 0l109 667h130l116 -667h-103l-23 147h-107l-23 -147h-99zM93 720v89h87v-89h-87zM163 240h78l-40 266zM233 720v89h87v-89h-87z" />
<glyph unicode="&#xc5;" horiz-adv-x="405" d="M27 0l109 667h130l116 -667h-103l-23 147h-107l-23 -147h-99zM133 777q0 29 21.5 49t52.5 20q30 0 51.5 -20.5t21.5 -48.5q0 -29 -21.5 -49.5t-51.5 -20.5q-31 0 -52.5 20.5t-21.5 49.5zM163 240h78l-40 266zM170 777q0 -14 11 -24.5t26 -10.5t25.5 10.5t10.5 24.5 q0 13 -11 23.5t-25 10.5q-15 0 -26 -10t-11 -24z" />
<glyph unicode="&#xc6;" horiz-adv-x="576" d="M17 0l207 667h321v-93h-173v-182h124v-93h-124v-206h173v-93h-273v147h-107l-44 -147h-104zM193 240h79v266z" />
<glyph unicode="&#xc7;" horiz-adv-x="388" d="M42 220v226q0 79 7.5 113.5t32.5 64.5q42 53 117 53q44 0 79 -19.5t54 -54.5q14 -24 18.5 -48.5t4.5 -72.5v-36h-101q0 62 -3 85q-2 24 -16.5 38.5t-36.5 14.5q-40 0 -51 -44q-5 -22 -5 -101v-212q0 -86 7 -106q13 -38 49 -38q20 0 32.5 10t17.5 34t5.5 39t0.5 50v20h101 v-38q0 -51 -4.5 -77.5t-18.5 -52.5q-40 -78 -133 -78q-75 0 -117 53q-25 30 -32.5 64.5t-7.5 112.5zM162 -46h79v-68l-22 -56h-47l17 56h-27v68z" />
<glyph unicode="&#xc8;" horiz-adv-x="348" d="M45 0v667h272v-93h-172v-182h124v-93h-124v-206h172v-93h-272zM73 800h97l45 -80h-70z" />
<glyph unicode="&#xc9;" horiz-adv-x="348" d="M45 0v667h272v-93h-172v-182h124v-93h-124v-206h172v-93h-272zM140 720l46 80h96l-72 -80h-70z" />
<glyph unicode="&#xca;" horiz-adv-x="348" d="M45 0v667h272v-93h-172v-182h124v-93h-124v-206h172v-93h-272zM76 720l58 80h101l58 -80h-80l-28 31l-29 -31h-80z" />
<glyph unicode="&#xcb;" horiz-adv-x="348" d="M45 0v667h272v-93h-172v-182h124v-93h-124v-206h172v-93h-272zM68 720v89h87v-89h-87zM208 720v89h87v-89h-87z" />
<glyph unicode="&#xcc;" horiz-adv-x="189" d="M-10 800h97l45 -80h-70zM45 0v667h100v-667h-100z" />
<glyph unicode="&#xcd;" horiz-adv-x="189" d="M45 0v667h100v-667h-100zM64 720l46 80h96l-72 -80h-70z" />
<glyph unicode="&#xce;" horiz-adv-x="189" d="M-11 720l58 80h101l58 -80h-80l-28 31l-29 -31h-80zM44 0v667h100v-667h-100z" />
<glyph unicode="&#xcf;" horiz-adv-x="189" d="M-9 720v89h87v-89h-87zM44 0v667h100v-667h-100zM117 720v89h87v-89h-87z" />
<glyph unicode="&#xd0;" horiz-adv-x="397" d="M11 299v93h33v275h142q86 0 127.5 -46t41.5 -143v-290q0 -96 -41.5 -142t-127.5 -46h-142v299h-33zM144 93h31q43 0 63 26q17 24 17 88v253q0 64 -17 88q-20 26 -63 26h-31v-182h57v-93h-57v-206z" />
<glyph unicode="&#xd1;" horiz-adv-x="420" d="M45 0v667h101l137 -396v396h93v-667h-93l-145 412v-412h-93zM127 718v69q27 15 55 15q20 0 43 -8q34 -12 48 -12q18 0 47 17v-69q-29 -17 -47 -17q-14 0 -48 12q-23 8 -43 8q-28 0 -55 -15z" />
<glyph unicode="&#xd2;" horiz-adv-x="397" d="M42 217v233q0 74 8 109.5t32 64.5q43 53 117 53t116 -53q24 -29 32 -64.5t8 -109.5v-233q0 -75 -8 -110t-32 -64q-43 -53 -117 -53q-73 0 -116 53q-24 29 -32 64.5t-8 109.5zM94 800h97l45 -80h-70zM142 228q0 -87 7 -107q13 -38 50 -38q40 0 51 44q5 22 5 101v211 q0 87 -7 107q-13 38 -49 38q-41 0 -52 -44q-5 -22 -5 -101v-211z" />
<glyph unicode="&#xd3;" horiz-adv-x="397" d="M42 217v233q0 74 8 109.5t32 64.5q43 53 117 53t116 -53q24 -29 32 -64.5t8 -109.5v-233q0 -75 -8 -110t-32 -64q-43 -53 -117 -53q-73 0 -116 53q-24 29 -32 64.5t-8 109.5zM142 228q0 -87 7 -107q13 -38 50 -38q40 0 51 44q5 22 5 101v211q0 87 -7 107q-13 38 -49 38 q-41 0 -52 -44q-5 -22 -5 -101v-211zM164 720l46 80h96l-72 -80h-70z" />
<glyph unicode="&#xd4;" horiz-adv-x="397" d="M42 217v233q0 74 8 109.5t32 64.5q43 53 117 53t116 -53q24 -29 32 -64.5t8 -109.5v-233q0 -75 -8 -110t-32 -64q-43 -53 -117 -53q-73 0 -116 53q-24 29 -32 64.5t-8 109.5zM93 720l58 80h101l58 -80h-80l-28 31l-29 -31h-80zM142 228q0 -87 7 -107q13 -38 50 -38 q40 0 51 44q5 22 5 101v211q0 87 -7 107q-13 38 -49 38q-41 0 -52 -44q-5 -22 -5 -101v-211z" />
<glyph unicode="&#xd5;" horiz-adv-x="397" d="M42 217v233q0 74 8 109.5t32 64.5q43 53 117 53t116 -53q24 -29 32 -64.5t8 -109.5v-233q0 -75 -8 -110t-32 -64q-43 -53 -117 -53q-73 0 -116 53q-24 29 -32 64.5t-8 109.5zM112 718v69q27 15 55 15q20 0 43 -8q34 -12 48 -12q18 0 47 17v-69q-29 -17 -47 -17 q-14 0 -48 12q-23 8 -43 8q-28 0 -55 -15zM142 228q0 -87 7 -107q13 -38 50 -38q40 0 51 44q5 22 5 101v211q0 87 -7 107q-13 38 -49 38q-41 0 -52 -44q-5 -22 -5 -101v-211z" />
<glyph unicode="&#xd6;" horiz-adv-x="397" d="M42 217v233q0 74 8 109.5t32 64.5q43 53 117 53t116 -53q24 -29 32 -64.5t8 -109.5v-233q0 -75 -8 -110t-32 -64q-43 -53 -117 -53q-73 0 -116 53q-24 29 -32 64.5t-8 109.5zM89 720v89h87v-89h-87zM142 228q0 -87 7 -107q13 -38 50 -38q40 0 51 44q5 22 5 101v211 q0 87 -7 107q-13 38 -49 38q-41 0 -52 -44q-5 -22 -5 -101v-211zM229 720v89h87v-89h-87z" />
<glyph unicode="&#xd7;" d="M58 263l76 76l-75 74l58 57l74 -74l76 76l54 -55l-75 -76l74 -74l-57 -57l-74 74l-76 -76z" />
<glyph unicode="&#xd8;" horiz-adv-x="397" d="M33 -12l31 82q-22 43 -22 147v233q0 74 8 109.5t32 64.5q43 52 118 52q49 0 89 -26l11 28h53l-27 -68q18 -28 24 -60t6 -100v-233q0 -74 -8 -109.5t-32 -64.5q-42 -53 -116 -53q-56 0 -100 34l-14 -36h-53zM142 272l107 275q-15 36 -50 36q-41 0 -52 -44q-5 -17 -5 -100 v-167zM145 140q6 -56 54 -56q41 0 52 44q5 20 5 100v199z" />
<glyph unicode="&#xd9;" horiz-adv-x="403" d="M45 217v450h100v-439q0 -87 7 -107q13 -38 50 -38q40 0 51 44q5 22 5 101v439h100v-450q0 -75 -8 -110t-32 -64q-43 -53 -117 -53q-73 0 -116 53q-24 29 -32 64.5t-8 109.5zM97 800h97l45 -80h-70z" />
<glyph unicode="&#xda;" horiz-adv-x="403" d="M45 217v450h100v-439q0 -87 7 -107q13 -38 50 -38q40 0 51 44q5 22 5 101v439h100v-450q0 -75 -8 -110t-32 -64q-43 -53 -117 -53q-73 0 -116 53q-24 29 -32 64.5t-8 109.5zM167 720l46 80h96l-72 -80h-70z" />
<glyph unicode="&#xdb;" horiz-adv-x="403" d="M45 217v450h100v-439q0 -87 7 -107q13 -38 50 -38q40 0 51 44q5 22 5 101v439h100v-450q0 -75 -8 -110t-32 -64q-43 -53 -117 -53q-73 0 -116 53q-24 29 -32 64.5t-8 109.5zM96 720l58 80h101l58 -80h-80l-28 31l-29 -31h-80z" />
<glyph unicode="&#xdc;" horiz-adv-x="403" d="M45 217v450h100v-439q0 -87 7 -107q13 -38 50 -38q40 0 51 44q5 22 5 101v439h100v-450q0 -75 -8 -110t-32 -64q-43 -53 -117 -53q-73 0 -116 53q-24 29 -32 64.5t-8 109.5zM92 720v89h87v-89h-87zM232 720v89h87v-89h-87z" />
<glyph unicode="&#xdd;" horiz-adv-x="372" d="M13 667h104l71 -262l69 262h101l-120 -397v-270h-100v270zM154 720l46 80h96l-72 -80h-70z" />
<glyph unicode="&#xde;" horiz-adv-x="391" d="M45 0v667h100v-114h40q96 0 134.5 -43.5t38.5 -151.5q0 -109 -38.5 -152.5t-134.5 -43.5h-40v-162h-100zM145 255h32q48 0 64.5 21t16.5 82t-16.5 81.5t-64.5 20.5h-32v-205z" />
<glyph unicode="&#xdf;" horiz-adv-x="342" d="M39 0v531q0 66 34.5 104.5t94.5 38.5q56 0 88.5 -33t32.5 -89q0 -68 -52 -90q39 -20 54 -67t15 -148q0 -115 -23 -175q-13 -34 -36 -53t-52 -19h-32v82h11q25 0 33.5 36.5t8.5 140.5q0 86 -11 118.5t-42 37.5v82q23 2 33 12.5t10 35.5q0 47 -37 47q-22 0 -31 -15.5 t-9 -50.5v-526h-90z" />
<glyph unicode="&#xe0;" horiz-adv-x="346" d="M30 111q0 65 36.5 107t146.5 104v32q0 40 -7.5 54t-29.5 14q-21 0 -31 -15.5t-11 -52.5h-92q5 72 42 111t100 39t94 -43q15 -21 20 -44.5t5 -72.5v-164q0 -124 9 -180h-90q-3 16 -7 56q-54 -63 -104 -63q-37 0 -59 32t-22 86zM75 660h97l45 -80h-70zM123 128 q0 -53 31 -53t59 46v132q-49 -31 -69.5 -59.5t-20.5 -65.5z" />
<glyph unicode="&#xe1;" horiz-adv-x="346" d="M30 111q0 65 36.5 107t146.5 104v32q0 40 -7.5 54t-29.5 14q-21 0 -31 -15.5t-11 -52.5h-92q5 72 42 111t100 39t94 -43q15 -21 20 -44.5t5 -72.5v-164q0 -124 9 -180h-90q-3 16 -7 56q-54 -63 -104 -63q-37 0 -59 32t-22 86zM123 128q0 -53 31 -53t59 46v132 q-49 -31 -69.5 -59.5t-20.5 -65.5zM148 580l46 80h96l-72 -80h-70z" />
<glyph unicode="&#xe2;" horiz-adv-x="346" d="M30 111q0 65 36.5 107t146.5 104v32q0 40 -7.5 54t-29.5 14q-21 0 -31 -15.5t-11 -52.5h-92q5 72 42 111t100 39t94 -43q15 -21 20 -44.5t5 -72.5v-164q0 -124 9 -180h-90q-3 16 -7 56q-54 -63 -104 -63q-37 0 -59 32t-22 86zM77 580l58 80h101l58 -80h-80l-28 31 l-29 -31h-80zM123 128q0 -53 31 -53t59 46v132q-49 -31 -69.5 -59.5t-20.5 -65.5z" />
<glyph unicode="&#xe3;" horiz-adv-x="346" d="M30 111q0 65 36.5 107t146.5 104v32q0 40 -7.5 54t-29.5 14q-21 0 -31 -15.5t-11 -52.5h-92q5 72 42 111t100 39t94 -43q15 -21 20 -44.5t5 -72.5v-164q0 -124 9 -180h-90q-3 16 -7 56q-54 -63 -104 -63q-37 0 -59 32t-22 86zM96 580v70q26 15 55 15q20 0 43 -8 q34 -12 48 -12q19 0 47 17v-69q-29 -17 -47 -17q-14 0 -48 12q-23 8 -43 8q-28 0 -55 -16zM123 128q0 -53 31 -53t59 46v132q-49 -31 -69.5 -59.5t-20.5 -65.5z" />
<glyph unicode="&#xe4;" horiz-adv-x="346" d="M30 111q0 65 36.5 107t146.5 104v32q0 40 -7.5 54t-29.5 14q-21 0 -31 -15.5t-11 -52.5h-92q5 72 42 111t100 39t94 -43q15 -21 20 -44.5t5 -72.5v-164q0 -124 9 -180h-90q-3 16 -7 56q-54 -63 -104 -63q-37 0 -59 32t-22 86zM71 578v89h87v-89h-87zM123 128 q0 -53 31 -53t59 46v132q-49 -31 -69.5 -59.5t-20.5 -65.5zM211 578v89h87v-89h-87z" />
<glyph unicode="&#xe5;" horiz-adv-x="346" d="M30 111q0 65 36.5 107t146.5 104v32q0 40 -7.5 54t-29.5 14q-21 0 -31 -15.5t-11 -52.5h-92q5 72 42 111t100 39t94 -43q15 -21 20 -44.5t5 -72.5v-164q0 -124 9 -180h-90q-3 16 -7 56q-54 -63 -104 -63q-37 0 -59 32t-22 86zM117 629q0 29 21.5 49t52.5 20 q30 0 51.5 -20.5t21.5 -48.5q0 -29 -21.5 -49.5t-51.5 -20.5q-31 0 -52.5 20.5t-21.5 49.5zM123 128q0 -53 31 -53t59 46v132q-49 -31 -69.5 -59.5t-20.5 -65.5zM154 629q0 -14 11 -24.5t26 -10.5t25.5 10.5t10.5 24.5q0 13 -11 23.5t-25 10.5q-15 0 -26 -10t-11 -24z" />
<glyph unicode="&#xe6;" horiz-adv-x="518" d="M30 112q0 64 36.5 105.5t146.5 104.5v32q0 40 -7.5 54t-29.5 14q-21 0 -31 -15.5t-11 -52.5h-92q5 72 42 111t100 39q47 0 81 -28q37 28 84 28q68 0 106 -51q28 -39 28 -118v-103h-180v-88q0 -69 46 -69q28 0 38 23q5 11 5 56v18h91v-23q0 -70 -23 -102q-38 -54 -110 -54 q-76 0 -117 64q-58 -64 -112 -64q-41 0 -66 32t-25 87zM123 128q0 -53 31 -53t59 46v132q-50 -32 -70 -60t-20 -65zM303 307h90v46q0 69 -45 69t-45 -69v-46z" />
<glyph unicode="&#xe7;" horiz-adv-x="326" d="M35 161v174q0 81 28 118q38 51 109 51q43 0 75.5 -23t45.5 -62q7 -23 7 -94h-90v12q0 25 -0.5 36t-4.5 25t-13 19t-24 5q-43 0 -43 -69v-209q0 -69 43 -69q15 0 24 6t13 22t4.5 28t0.5 38v12h90v-23q0 -75 -22 -109q-35 -56 -107 -56q-31 0 -60.5 14t-47.5 37 q-28 38 -28 117zM132 -46h79v-68l-22 -56h-47l17 56h-27v68z" />
<glyph unicode="&#xe8;" horiz-adv-x="340" d="M35 162v173q0 79 28 118q38 51 107 51q68 0 106 -52q28 -38 28 -117v-103h-179v-88q0 -69 45 -69q29 0 38 23q5 11 5 56v18h91v-23q0 -70 -23 -102q-38 -54 -109 -54q-70 0 -108 51q-29 39 -29 118zM65 660h97l45 -80h-70zM125 307h89v46q0 69 -44 69q-45 0 -45 -69v-46z " />
<glyph unicode="&#xe9;" horiz-adv-x="340" d="M35 162v173q0 79 28 118q38 51 107 51q68 0 106 -52q28 -38 28 -117v-103h-179v-88q0 -69 45 -69q29 0 38 23q5 11 5 56v18h91v-23q0 -70 -23 -102q-38 -54 -109 -54q-70 0 -108 51q-29 39 -29 118zM125 307h89v46q0 69 -44 69q-45 0 -45 -69v-46zM139 580l46 80h96 l-72 -80h-70z" />
<glyph unicode="&#xea;" horiz-adv-x="340" d="M35 162v173q0 79 28 118q38 51 107 51q68 0 106 -52q28 -38 28 -117v-103h-179v-88q0 -69 45 -69q29 0 38 23q5 11 5 56v18h91v-23q0 -70 -23 -102q-38 -54 -109 -54q-70 0 -108 51q-29 39 -29 118zM64 580l58 80h101l58 -80h-80l-28 31l-29 -31h-80zM125 307h89v46 q0 69 -44 69q-45 0 -45 -69v-46z" />
<glyph unicode="&#xeb;" horiz-adv-x="340" d="M35 162v173q0 79 28 118q38 51 107 51q68 0 106 -52q28 -38 28 -117v-103h-179v-88q0 -69 45 -69q29 0 38 23q5 11 5 56v18h91v-23q0 -70 -23 -102q-38 -54 -109 -54q-70 0 -108 51q-29 39 -29 118zM60 578v89h87v-89h-87zM125 307h89v46q0 69 -44 69q-45 0 -45 -69v-46z M200 578v89h87v-89h-87z" />
<glyph unicode="&#xec;" horiz-adv-x="167" d="M-24 660h97l45 -80h-70zM39 0v497h90v-497h-90z" />
<glyph unicode="&#xed;" horiz-adv-x="167" d="M39 0v497h90v-497h-90zM53 580l46 80h96l-72 -80h-70z" />
<glyph unicode="&#xee;" horiz-adv-x="167" d="M-22 580l58 80h101l58 -80h-80l-28 31l-29 -31h-80zM38 0v497h90v-497h-90z" />
<glyph unicode="&#xef;" horiz-adv-x="167" d="M-20 578v89h87v-89h-87zM38 0v497h90v-497h-90zM106 578v89h87v-89h-87z" />
<glyph unicode="&#xf0;" horiz-adv-x="336" d="M35 162v186q0 86 20 117q26 39 78 39q41 0 76 -42q-8 77 -34 116l-48 -40l-26 31l51 42l-26 25l46 45q13 -10 31 -27l48 40l26 -30l-47 -39q71 -81 71 -244v-219q0 -79 -28 -118q-38 -51 -105 -51t-105 51q-28 39 -28 118zM125 144q0 -69 43 -69t43 69v209q0 69 -43 69 t-43 -69v-209z" />
<glyph unicode="&#xf1;" horiz-adv-x="337" d="M39 0v497h90v-54q31 34 53.5 47.5t49.5 13.5q33 0 50 -23q16 -23 16 -94v-387h-90v366q0 34 -3 41q-3 15 -19 15q-28 0 -57 -42v-380h-90zM85 580v70q26 15 55 15q20 0 43 -8q34 -12 48 -12q19 0 47 17v-69q-29 -17 -47 -17q-14 0 -48 12q-23 8 -43 8q-28 0 -55 -16z" />
<glyph unicode="&#xf2;" horiz-adv-x="336" d="M35 162v173q0 79 28 118q38 51 105 51t105 -51q28 -39 28 -118v-173q0 -79 -28 -118q-38 -51 -105 -51t-105 51q-28 39 -28 118zM63 660h97l45 -80h-70zM125 144q0 -69 43 -69t43 69v209q0 69 -43 69t-43 -69v-209z" />
<glyph unicode="&#xf3;" horiz-adv-x="336" d="M35 162v173q0 79 28 118q38 51 105 51t105 -51q28 -39 28 -118v-173q0 -79 -28 -118q-38 -51 -105 -51t-105 51q-28 39 -28 118zM125 144q0 -69 43 -69t43 69v209q0 69 -43 69t-43 -69v-209zM137 580l46 80h96l-72 -80h-70z" />
<glyph unicode="&#xf4;" horiz-adv-x="336" d="M35 162v173q0 79 28 118q38 51 105 51t105 -51q28 -39 28 -118v-173q0 -79 -28 -118q-38 -51 -105 -51t-105 51q-28 39 -28 118zM63 580l58 80h101l58 -80h-80l-28 31l-29 -31h-80zM125 144q0 -69 43 -69t43 69v209q0 69 -43 69t-43 -69v-209z" />
<glyph unicode="&#xf5;" horiz-adv-x="336" d="M35 162v173q0 79 28 118q38 51 105 51t105 -51q28 -39 28 -118v-173q0 -79 -28 -118q-38 -51 -105 -51t-105 51q-28 39 -28 118zM85 580v70q26 15 55 15q20 0 43 -8q34 -12 48 -12q19 0 47 17v-69q-29 -17 -47 -17q-14 0 -48 12q-23 8 -43 8q-28 0 -55 -16zM125 144 q0 -69 43 -69t43 69v209q0 69 -43 69t-43 -69v-209z" />
<glyph unicode="&#xf6;" horiz-adv-x="336" d="M35 162v173q0 79 28 118q38 51 105 51t105 -51q28 -39 28 -118v-173q0 -79 -28 -118q-38 -51 -105 -51t-105 51q-28 39 -28 118zM58 578v89h87v-89h-87zM125 144q0 -69 43 -69t43 69v209q0 69 -43 69t-43 -69v-209zM198 578v89h87v-89h-87z" />
<glyph unicode="&#xf7;" d="M43 301v78h295v-78h-295zM151 165v84h78v-84h-78zM151 432v84h78v-84h-78z" />
<glyph unicode="&#xf8;" horiz-adv-x="336" d="M35 162v173q0 80 28 118q38 51 106 51q20 0 43 -8l8 31h40l-13 -49q30 -22 42 -54t12 -89v-173q0 -80 -28 -118q-38 -51 -105 -51q-19 0 -41 7l-11 -42h-40l15 59q-32 24 -44 55.5t-12 89.5zM125 152l66 263q-11 7 -22 7q-44 0 -44 -69v-201zM147 81q10 -6 21 -6 q43 0 43 69v190z" />
<glyph unicode="&#xf9;" horiz-adv-x="337" d="M39 110v387h90v-366q0 -34 3 -41q3 -15 19 -15q28 0 57 42v380h90v-497h-90v54q-31 -34 -53.5 -47.5t-49.5 -13.5q-33 0 -50 23q-16 23 -16 94zM64 660h97l45 -80h-70z" />
<glyph unicode="&#xfa;" horiz-adv-x="337" d="M39 110v387h90v-366q0 -34 3 -41q3 -15 19 -15q28 0 57 42v380h90v-497h-90v54q-31 -34 -53.5 -47.5t-49.5 -13.5q-33 0 -50 23q-16 23 -16 94zM134 580l46 80h96l-72 -80h-70z" />
<glyph unicode="&#xfb;" horiz-adv-x="337" d="M39 110v387h90v-366q0 -34 3 -41q3 -15 19 -15q28 0 57 42v380h90v-497h-90v54q-31 -34 -53.5 -47.5t-49.5 -13.5q-33 0 -50 23q-16 23 -16 94zM63 580l58 80h101l58 -80h-80l-28 31l-29 -31h-80z" />
<glyph unicode="&#xfc;" horiz-adv-x="337" d="M39 110v387h90v-366q0 -34 3 -41q3 -15 19 -15q28 0 57 42v380h90v-497h-90v54q-31 -34 -53.5 -47.5t-49.5 -13.5q-33 0 -50 23q-16 23 -16 94zM59 578v89h87v-89h-87zM199 578v89h87v-89h-87z" />
<glyph unicode="&#xfd;" horiz-adv-x="320" d="M17 497h90l54 -320l53 320h89l-101 -510q-14 -71 -21 -91.5t-23 -37.5q-31 -35 -103 -35q-13 0 -32 3v88q7 -1 18 -1q37 0 52 18.5t25 62.5zM129 580l46 80h96l-72 -80h-70z" />
<glyph unicode="&#xfe;" horiz-adv-x="338" d="M39 -170v837h90v-218q47 55 93 55q45 0 65 -40q16 -32 16 -116v-199q0 -84 -16 -116q-20 -40 -65 -40q-48 0 -93 55v-218h-90zM129 97q22 -22 45 -22q24 0 32 18q7 13 7 55v201q0 41 -7 55q-8 18 -32 18q-23 0 -45 -22v-303z" />
<glyph unicode="&#xff;" horiz-adv-x="320" d="M17 497h90l54 -320l53 320h89l-101 -510q-14 -71 -21 -91.5t-23 -37.5q-31 -35 -103 -35q-13 0 -32 3v88q7 -1 18 -1q37 0 52 18.5t25 62.5zM54 578v89h87v-89h-87zM194 578v89h87v-89h-87z" />
<glyph unicode="&#x152;" horiz-adv-x="558" d="M43 188v290q0 97 41.5 143t127.5 46h314v-93h-172v-182h123v-93h-123v-206h172v-93h-314q-86 0 -127.5 46t-41.5 142zM143 193q0 -56 17 -77q20 -23 63 -23h31v481h-31q-43 0 -63 -23q-17 -21 -17 -78v-280z" />
<glyph unicode="&#x153;" horiz-adv-x="521" d="M40 162v173q0 79 28 118q38 51 105 51q47 0 88 -33q42 33 90 33q67 0 106 -52q28 -38 28 -117v-103h-179v-88q0 -69 45 -69q29 0 38 23q5 11 5 56v18h91v-23q0 -70 -23 -102q-38 -54 -108 -54q-50 0 -92 33q-40 -33 -89 -33q-67 0 -105 51q-28 39 -28 118zM130 144 q0 -69 43 -69t43 69v209q0 69 -43 69t-43 -69v-209zM306 307h89v46q0 69 -44 69q-45 0 -45 -69v-46z" />
<glyph unicode="&#x178;" horiz-adv-x="372" d="M13 667h104l71 -262l69 262h101l-120 -397v-270h-100v270zM79 720v89h87v-89h-87zM219 720v89h87v-89h-87z" />
<glyph unicode="&#x2c6;" horiz-adv-x="500" d="M141 580l58 80h101l58 -80h-80l-28 31l-29 -31h-80z" />
<glyph unicode="&#x2dc;" horiz-adv-x="500" d="M153 580v70q26 15 55 15q20 0 43 -8q34 -12 48 -12q19 0 47 17v-69q-29 -17 -47 -17q-14 0 -48 12q-23 8 -43 8q-28 0 -55 -16z" />
<glyph unicode="&#x2000;" horiz-adv-x="423" />
<glyph unicode="&#x2001;" horiz-adv-x="846" />
<glyph unicode="&#x2002;" horiz-adv-x="423" />
<glyph unicode="&#x2003;" horiz-adv-x="846" />
<glyph unicode="&#x2004;" horiz-adv-x="282" />
<glyph unicode="&#x2005;" horiz-adv-x="211" />
<glyph unicode="&#x2006;" horiz-adv-x="141" />
<glyph unicode="&#x2007;" horiz-adv-x="141" />
<glyph unicode="&#x2008;" horiz-adv-x="105" />
<glyph unicode="&#x2009;" horiz-adv-x="169" />
<glyph unicode="&#x200a;" horiz-adv-x="47" />
<glyph unicode="&#x2010;" horiz-adv-x="140" d="M0 208v90h140v-90h-140z" />
<glyph unicode="&#x2011;" horiz-adv-x="140" d="M0 208v90h140v-90h-140z" />
<glyph unicode="&#x2012;" horiz-adv-x="140" d="M0 208v90h140v-90h-140z" />
<glyph unicode="&#x2013;" d="M43 208v90h295v-90h-295z" />
<glyph unicode="&#x2014;" horiz-adv-x="429" d="M0 208v90h429v-90h-429z" />
<glyph unicode="&#x2018;" horiz-adv-x="190" d="M47 448v103l52 116h45l-35 -116h35v-103h-97z" />
<glyph unicode="&#x2019;" horiz-adv-x="190" d="M47 448l35 116h-35v103h97v-103l-52 -116h-45z" />
<glyph unicode="&#x201a;" horiz-adv-x="190" d="M47 0v103h97v-103l-52 -116h-45l35 116h-35z" />
<glyph unicode="&#x201c;" horiz-adv-x="327" d="M47 448v103l52 116h45l-35 -116h35v-103h-97zM183 448v103l52 116h45l-35 -116h35v-103h-97z" />
<glyph unicode="&#x201d;" horiz-adv-x="327" d="M47 448l35 116h-35v103h97v-103l-52 -116h-45zM183 448l35 116h-35v103h97v-103l-52 -116h-45z" />
<glyph unicode="&#x201e;" horiz-adv-x="327" d="M47 0v103h97v-103l-52 -116h-45l35 116h-35zM183 0v103h97v-103l-52 -116h-45l35 116h-35z" />
<glyph unicode="&#x2022;" horiz-adv-x="667" d="M196 339q0 58 41 98.5t100 40.5q55 0 95.5 -41t40.5 -97q0 -58 -40.5 -98.5t-97.5 -40.5t-98 40.5t-41 97.5z" />
<glyph unicode="&#x2026;" horiz-adv-x="540" d="M42 0v103h97v-103h-97zM222 0v103h97v-103h-97zM402 0v103h97v-103h-97z" />
<glyph unicode="&#x202f;" horiz-adv-x="169" />
<glyph unicode="&#x2039;" horiz-adv-x="170" d="M40 182v143l90 82v-120l-31 -34l31 -34v-119z" />
<glyph unicode="&#x203a;" horiz-adv-x="170" d="M40 100v119l31 34l-31 34v120l90 -82v-143z" />
<glyph unicode="&#x205f;" horiz-adv-x="211" />
<glyph unicode="&#x20ac;" horiz-adv-x="465" d="M43 301l26 62h41v83q0 79 7.5 113.5t32.5 64.5q42 53 117 53q44 0 79 -19.5t54 -54.5q14 -24 18.5 -48.5t4.5 -72.5v-36h-101q0 62 -3 85q-2 24 -16.5 38.5t-36.5 14.5q-40 0 -51 -44q-5 -22 -5 -101v-76h167l-26 -62h-141v-74q0 -86 7 -106q13 -38 49 -38q20 0 32.5 10 t17.5 34t5.5 39t0.5 50v20h101v-38q0 -51 -4.5 -77.5t-18.5 -52.5q-40 -78 -133 -78q-75 0 -117 53q-25 30 -32.5 64.5t-7.5 112.5v81h-67z" />
<glyph unicode="&#x2122;" horiz-adv-x="553" d="M27 608v59h189v-59h-62v-321h-65v321h-62zM245 287v380h84l52 -214l48 214h85v-380h-61v233l-55 -233h-35l-57 234v-234h-61z" />
<glyph unicode="&#xe000;" horiz-adv-x="495" d="M0 0v495h495v-495h-495z" />
</font>
</defs>
</svg>
