<svg xmlns="http://www.w3.org/2000/svg" xmlns:xlink="http://www.w3.org/1999/xlink" version="1.1" x="0px" y="0px" viewBox="0 0 113 113" style="enable-background:new 0 0 113 113;" xml:space="preserve"><g><path style="fill:#CD3F35;" d="M107.9 89.2c0 10.6-8.6 19.3-19.3 19.3H24.4c-10.6 0-19.3-8.6-19.3-19.3V24.9c0-10.6 8.6-19.3 19.3-19.3 h64.3c10.6 0 19.3 8.6 19.3 19.3V89.2z M94.1 43.8H80.9v-7.3c0-3.8 0.4-5.9 5.8-5.9h7.4V16H82.4c-14.1 0-19 7.1-19 19.1v8.8h-8.8 v14.7h8.8V101h17.5V58.5h11.7L94.1 43.8z"/></g></svg>