<svg xmlns="http://www.w3.org/2000/svg" xmlns:xlink="http://www.w3.org/1999/xlink" version="1.1" x="0px" y="0px" viewBox="0 0 113 113" style="enable-background:new 0 0 113 113;" xml:space="preserve"><g><path style="fill:#CD3F35;" d="M110.1 95.7c0 4.9-4 8.9-8.9 8.9H11.9c-4.9 0-8.9-4-8.9-8.9v-75c0-4.9 4-8.9 8.9-8.9h89.3 c4.9 0 8.9 4 8.9 8.9V95.7z M24.4 22.5c0-2-1.6-3.6-3.6-3.6h-7.1c-2 0-3.6 1.6-3.6 3.6v7.1c0 2 1.6 3.6 3.6 3.6h7.1 c2 0 3.6-1.6 3.6-3.6V22.5z M24.4 43.9c0-2-1.6-3.6-3.6-3.6h-7.1c-2 0-3.6 1.6-3.6 3.6V51c0 2 1.6 3.6 3.6 3.6h7.1 c2 0 3.6-1.6 3.6-3.6V43.9z M24.4 65.3c0-2-1.6-3.6-3.6-3.6h-7.1c-2 0-3.6 1.6-3.6 3.6v7.1c0 2 1.6 3.6 3.6 3.6h7.1 c2 0 3.6-1.6 3.6-3.6V65.3z M24.4 86.8c0-2-1.6-3.6-3.6-3.6h-7.1c-2 0-3.6 1.6-3.6 3.6v7.1c0 2 1.6 3.6 3.6 3.6h7.1 c2 0 3.6-1.6 3.6-3.6V86.8z M81.5 22.5c0-2-1.6-3.6-3.6-3.6H35.1c-2 0-3.6 1.6-3.6 3.6V51c0 2 1.6 3.6 3.6 3.6h42.9 c2 0 3.6-1.6 3.6-3.6V22.5z M81.5 65.3c0-2-1.6-3.6-3.6-3.6H35.1c-2 0-3.6 1.6-3.6 3.6v28.6c0 2 1.6 3.6 3.6 3.6h42.9 c2 0 3.6-1.6 3.6-3.6V65.3z M102.9 22.5c0-2-1.6-3.6-3.6-3.6h-7.1c-2 0-3.6 1.6-3.6 3.6v7.1c0 2 1.6 3.6 3.6 3.6h7.1 c2 0 3.6-1.6 3.6-3.6V22.5z M102.9 43.9c0-2-1.6-3.6-3.6-3.6h-7.1c-2 0-3.6 1.6-3.6 3.6V51c0 2 1.6 3.6 3.6 3.6h7.1 c2 0 3.6-1.6 3.6-3.6V43.9z M102.9 65.3c0-2-1.6-3.6-3.6-3.6h-7.1c-2 0-3.6 1.6-3.6 3.6v7.1c0 2 1.6 3.6 3.6 3.6h7.1 c2 0 3.6-1.6 3.6-3.6V65.3z M102.9 86.8c0-2-1.6-3.6-3.6-3.6h-7.1c-2 0-3.6 1.6-3.6 3.6v7.1c0 2 1.6 3.6 3.6 3.6h7.1 c2 0 3.6-1.6 3.6-3.6V86.8z"/></g></svg>