<svg xmlns="http://www.w3.org/2000/svg" xmlns:xlink="http://www.w3.org/1999/xlink" version="1.1" x="0px" y="0px" viewBox="0 0 113 113" style="enable-background:new 0 0 113 113;" xml:space="preserve"><g><path style="fill:#CD3F35;" d="M102.4 106.6c-0.8 0.9-1.9 1.3-3.1 1.3h-9.6c-2.3 0-4.2-1.7-4.3-4C83.3 65 52.3 34 13.4 31.7 c-2.3-0.1-4-2-4-4.2v-9.6c0-1.2 0.5-2.3 1.3-3.1c0.8-0.8 1.9-1.2 2.9-1.2c0.1 0 0.1 0 0.2 0c23.4 1.2 45.5 11.1 62.1 27.7 c16.7 16.6 26.5 38.6 27.7 62.1C103.7 104.5 103.3 105.7 102.4 106.6z M68.2 106.5c-0.8 0.9-1.9 1.4-3.1 1.4h-9 c-2.2 0-4-1.7-4.2-3.9c-1.9-20.4-18.1-36.6-38.6-38.6c-2.2-0.2-3.9-2-3.9-4.2v-9c0-1.2 0.5-2.3 1.4-3.1c0.7-0.7 1.8-1.1 2.9-1.1 c0.1 0 0.2 0 0.3 0c14.3 1.1 27.7 7.4 37.8 17.5C62 75.5 68.2 89 69.4 103.3C69.4 104.5 69 105.6 68.2 106.5z M22.2 107.9 c-7.1 0-12.9-5.8-12.9-12.9c0-7.1 5.8-12.9 12.9-12.9S35.1 87.9 35.1 95C35.1 102.1 29.3 107.9 22.2 107.9z"/></g></svg>