<svg xmlns="http://www.w3.org/2000/svg" xmlns:xlink="http://www.w3.org/1999/xlink" version="1.1" x="0px" y="0px" viewBox="0 0 113 113" style="enable-background:new 0 0 113 113;" xml:space="preserve"><g><path style="fill:#CD3F35;" d="M101.2 33.6c0.1 1 0.1 2 0.1 3c0 30.5-23.2 65.6-65.6 65.6c-13.1 0-25.2-3.8-35.4-10.4 c1.9 0.2 3.6 0.3 5.6 0.3c10.8 0 20.7-3.6 28.6-9.9c-10.1-0.2-18.6-6.9-21.6-16c1.4 0.2 2.9 0.4 4.4 0.4c2.1 0 4.1-0.3 6.1-0.8 C12.7 63.7 4.8 54.4 4.8 43.2c0-0.1 0-0.2 0-0.3c3.1 1.7 6.6 2.8 10.4 2.9C9 41.7 4.9 34.6 4.9 26.6c0-4.3 1.1-8.2 3.1-11.6 c11.4 14 28.4 23.1 47.6 24.1c-0.4-1.7-0.6-3.5-0.6-5.3c0-12.7 10.3-23.1 23.1-23.1c6.6 0 12.6 2.8 16.9 7.3 c5.2-1 10.2-2.9 14.6-5.6c-1.7 5.4-5.4 9.9-10.1 12.7c4.6-0.5 9.1-1.8 13.3-3.6C109.6 26.2 105.7 30.3 101.2 33.6z"/></g></svg>